<?xml version="1.0" standalone="no"?>
<!DOCTYPE svg PUBLIC "-//W3C//DTD SVG 20010904//EN"
 "http://www.w3.org/TR/2001/REC-SVG-20010904/DTD/svg10.dtd">
<svg version="1.0" xmlns="http://www.w3.org/2000/svg"
 width="700.000000pt" height="700.000000pt" viewBox="0 0 700.000000 700.000000"
 preserveAspectRatio="xMidYMid meet">
<metadata>
Created by potrace 1.14, written by Peter Selinger 2001-2017
</metadata>
<g transform="translate(0.000000,700.000000) scale(0.100000,-0.100000)"
fill="#000000" stroke="none">
<path d="M3319 6026 c-2 -2 -38 -7 -79 -10 -41 -3 -84 -8 -95 -10 -11 -2 -60
-11 -110 -20 -325 -60 -679 -215 -960 -418 -16 -13 -96 -77 -150 -121 -47 -39
-226 -217 -270 -268 -146 -171 -280 -390 -380 -616 -17 -40 -35 -70 -40 -65
-4 4 -5 2 -2 -5 4 -6 -4 -42 -17 -80 -14 -37 -32 -95 -42 -128 -20 -67 -20
-66 -29 -114 -3 -19 -8 -37 -10 -40 -3 -6 -35 -184 -40 -226 -1 -11 -3 -42 -4
-68 -1 -32 -5 -46 -12 -41 -8 5 -8 1 0 -13 6 -11 8 -22 6 -25 -7 -6 -7 -273 0
-338 3 -30 7 -73 10 -96 21 -207 98 -490 190 -694 25 -55 45 -105 45 -110 0
-6 4 -10 8 -10 4 0 13 -12 19 -27 28 -67 118 -211 189 -306 24 -31 44 -59 44
-62 0 -2 10 -15 23 -28 12 -13 35 -39 51 -58 56 -67 143 -155 226 -229 47 -41
87 -77 90 -80 30 -30 265 -190 278 -190 6 0 12 -3 14 -7 6 -14 220 -120 323
-161 184 -73 388 -129 530 -147 32 -4 68 -9 80 -11 78 -15 343 -24 445 -14 36
3 65 2 72 -5 8 -7 9 -6 4 2 -4 7 0 11 11 11 16 -1 54 4 153 18 164 25 413 97
570 166 74 33 223 109 252 129 14 11 29 19 33 19 16 0 221 147 312 224 152
128 252 234 382 405 66 86 174 256 206 324 9 20 22 37 27 37 5 0 7 4 3 9 -3 6
8 36 24 68 85 171 173 462 196 653 3 25 7 63 10 85 3 22 8 63 10 90 6 59 6
305 1 355 -2 19 -7 65 -10 101 -18 188 -81 438 -166 649 -42 107 -154 323
-188 362 -8 9 -11 23 -6 30 4 7 4 10 -1 6 -4 -4 -27 21 -51 55 -104 153 -260
326 -416 464 -125 111 -357 262 -517 338 -44 21 -77 43 -74 48 4 6 1 7 -6 2
-7 -4 -23 -3 -34 3 -70 34 -245 92 -382 126 -61 15 -71 17 -185 35 -36 6 -81
13 -100 17 -41 7 -455 16 -461 10z m191 -111 c8 -5 11 -4 6 3 -4 8 8 10 41 7
26 -2 84 -7 128 -9 44 -3 91 -8 105 -10 14 -3 45 -7 70 -10 95 -12 241 -46
235 -55 -2 -4 8 -6 23 -5 29 1 200 -57 313 -106 161 -71 329 -171 483 -289
103 -78 292 -259 361 -345 22 -27 46 -55 52 -62 41 -41 195 -290 253 -409 65
-132 149 -358 169 -456 60 -288 69 -375 65 -604 -3 -204 -30 -392 -83 -585
-31 -112 -118 -340 -130 -340 -4 0 -8 -6 -8 -13 0 -40 -190 -360 -255 -429 -7
-7 -32 -38 -55 -68 -88 -115 -421 -419 -460 -420 -6 0 -13 -4 -15 -9 -5 -15
-165 -110 -278 -166 -100 -50 -271 -121 -308 -129 -9 -1 -24 -6 -32 -9 -57
-22 -231 -63 -310 -73 -25 -3 -52 -7 -60 -9 -8 -3 -44 -7 -80 -10 -36 -4 -80
-8 -98 -11 -25 -3 -31 -1 -26 8 6 10 4 10 -8 0 -13 -10 -53 -12 -175 -8 -87 3
-171 7 -188 10 -29 6 -57 10 -140 22 -111 16 -398 95 -419 115 -6 5 -16 9 -24
9 -18 0 -214 90 -227 104 -5 6 -18 12 -28 14 -17 3 -217 125 -249 151 -7 6
-46 36 -86 67 -41 32 -69 60 -66 66 4 7 2 8 -5 4 -15 -10 -43 13 -34 27 3 5 1
7 -4 4 -10 -6 -189 167 -235 228 -12 17 -25 32 -28 35 -48 41 -237 339 -292
460 -45 100 -92 218 -87 222 1 2 -3 14 -10 27 -14 26 -62 185 -66 216 -1 11
-5 27 -9 36 -4 9 -8 39 -9 67 -1 27 -5 48 -9 45 -5 -2 -8 8 -9 24 0 15 -2 39
-5 53 -23 141 -26 516 -5 571 5 15 7 29 5 32 -10 10 61 343 86 402 4 11 20 56
35 100 37 106 140 319 209 429 54 85 163 234 195 267 9 9 42 46 74 83 32 36
64 63 69 60 6 -4 8 -3 5 3 -3 5 12 27 35 49 55 52 231 194 235 190 2 -2 18 10
35 26 17 16 37 27 45 24 8 -3 11 -2 8 4 -3 5 9 17 27 26 18 9 35 20 38 23 5 6
9 9 111 64 78 42 249 116 334 145 66 23 270 77 325 86 19 3 46 9 60 11 14 3
48 8 77 10 29 2 56 5 60 8 4 2 39 5 78 6 38 1 71 3 72 5 6 6 80 -1 93 -9z"/>
<path d="M3045 4773 c-26 -27 -63 -73 -84 -103 -20 -30 -40 -58 -46 -62 -5 -4
-7 -8 -3 -8 4 0 -2 -20 -13 -44 -30 -69 -57 -189 -57 -255 1 -32 -3 -64 -7
-71 -5 -9 -4 -11 3 -6 8 5 12 -3 12 -23 0 -42 23 -125 54 -195 108 -243 369
-414 621 -406 137 4 153 5 149 11 -2 4 12 10 32 14 65 12 217 95 253 139 7 9
18 13 25 9 6 -3 8 -3 4 2 -4 4 10 27 31 51 87 100 139 245 135 379 -1 44 -4
89 -7 100 -3 11 -8 34 -13 50 -19 77 -96 206 -156 261 -233 214 -568 210 -781
-10 -40 -41 -107 -150 -107 -174 0 -6 -5 -23 -11 -39 -19 -45 -13 -177 11
-251 39 -120 131 -225 245 -281 93 -45 128 -48 175 -14 22 15 40 30 40 33 0
15 -69 80 -84 80 -28 0 -118 48 -154 83 -44 42 -75 94 -66 108 4 7 3 9 -3 6
-6 -4 -15 11 -22 32 -14 47 -15 158 -1 166 6 4 8 10 5 15 -10 17 39 104 84
149 196 197 528 134 655 -122 43 -87 56 -148 50 -235 -17 -235 -241 -427 -493
-423 -107 1 -254 43 -233 66 4 5 1 5 -5 1 -33 -19 -226 164 -207 196 4 6 3 8
-4 4 -11 -6 -56 79 -66 125 -3 13 -9 40 -14 59 -10 39 -8 155 2 208 18 91 78
202 146 270 36 36 44 50 48 91 l4 48 -38 6 c-59 10 -58 10 -109 -40z"/>
<path d="M3560 4410 c0 -113 3 -140 14 -140 19 0 18 267 -1 274 -10 4 -13 -25
-13 -134z"/>
<path d="M3640 4229 c0 -10 35 -30 42 -23 3 3 55 5 116 5 88 0 111 3 116 15 5
12 -14 14 -134 13 -77 0 -140 -5 -140 -10z"/>
<path d="M1966 3000 c-11 -3 -39 -5 -63 -3 l-43 4 0 -226 0 -226 32 3 33 3 -1
93 -1 92 43 0 c79 0 103 -22 166 -152 16 -33 23 -38 52 -38 l34 0 -47 90 c-25
49 -56 95 -68 101 l-23 12 29 21 c39 27 47 54 42 138 -1 17 -56 78 -69 77 -21
-3 -32 2 -26 12 5 8 2 9 -12 1 -10 -5 -27 -7 -38 -2 -12 4 -30 4 -40 0z m92
-70 c27 -17 32 -25 32 -59 0 -58 -35 -83 -109 -79 l-56 3 -1 78 -1 77 51 0
c33 0 62 -7 84 -20z"/>
<path d="M4912 2995 c-53 -18 -85 -61 -85 -109 0 -22 2 -48 4 -56 5 -20 59
-60 80 -60 10 0 20 -4 24 -9 3 -6 13 -10 23 -10 16 0 54 -7 60 -11 1 -2 6 -3
12 -4 5 0 19 -9 30 -19 34 -29 24 -87 -17 -109 -43 -24 -101 -23 -165 2 -29
11 -53 20 -54 20 0 0 -1 -13 -1 -30 0 -25 6 -31 36 -42 49 -17 203 -17 209 0
2 7 7 10 11 7 18 -10 60 51 62 90 3 61 1 70 -23 97 -22 25 -118 66 -148 63 -8
-1 -27 5 -42 12 -86 42 -29 138 76 128 25 -3 57 -10 71 -15 33 -13 43 -7 43
24 0 19 -7 25 -37 31 -64 12 -135 13 -169 0z"/>
<path d="M2905 2773 l0 -223 33 0 32 0 0 107 0 107 35 -34 c19 -18 31 -38 28
-43 -3 -6 -1 -7 5 -3 14 8 104 -82 96 -96 -4 -7 -2 -8 4 -4 6 4 19 -2 29 -14
13 -14 30 -20 61 -20 l44 0 -73 73 c-41 41 -77 72 -81 70 -5 -2 -8 0 -8 6 0 5
-19 28 -42 50 l-42 41 38 35 c21 19 40 35 41 35 1 0 35 32 76 70 l73 70 -41
-2 c-37 -1 -51 -10 -140 -94 l-98 -92 -3 93 -3 94 -32 -1 -32 -1 0 -224z"/>
<path d="M3839 2996 c-6 -5 -3 -278 3 -282 5 -3 5 -11 1 -17 -4 -7 -8 -42 -9
-79 l-2 -68 149 0 149 0 0 25 c0 28 8 26 -142 26 -62 0 -88 4 -89 12 0 7 -1
43 -1 82 l0 69 105 1 c58 0 108 2 111 5 3 3 3 15 0 26 -5 20 -12 21 -110 19
-115 -3 -106 -9 -106 70 0 19 1 41 1 49 1 11 23 14 99 14 134 0 129 -1 128 25
-1 22 -3 22 -143 23 -79 1 -144 1 -144 0z"/>
<path d="M2324 2850 l-28 -5 -1 -148 0 -148 108 2 c101 1 107 2 93 18 -12 13
-31 17 -86 16 l-70 -2 -1 31 c0 17 -2 41 -3 54 -3 24 -1 25 86 23 31 -1 59 2
62 8 12 18 -21 29 -81 27 -35 -1 -63 2 -64 6 -1 4 -1 17 -1 28 0 59 -3 57 74
56 60 -1 73 2 76 16 3 14 -8 17 -66 20 -39 1 -83 1 -98 -2z"/>
<path d="M2651 2828 c-38 -100 -103 -264 -107 -270 -3 -4 5 -8 18 -8 17 0 27
10 39 39 l16 38 66 0 c64 0 66 -1 79 -31 7 -17 12 -34 10 -38 -1 -5 8 -8 21
-8 18 0 22 6 22 29 0 16 -3 27 -6 25 -7 -4 -85 196 -81 209 1 4 -2 7 -8 7 -5
0 -10 7 -10 15 0 25 -49 19 -59 -7z m36 -166 c-27 -2 -51 -1 -54 2 -3 2 8 36
23 75 l28 71 26 -72 27 -73 -50 -3z"/>
<path d="M3277 2843 c-16 -15 8 -29 46 -28 23 1 47 0 52 -2 7 -2 11 -52 10
-133 -1 -126 0 -130 21 -130 20 0 21 4 21 118 1 64 2 124 2 133 1 13 12 16 53
15 41 -1 52 2 54 16 2 16 -9 18 -126 17 -70 0 -130 -3 -133 -6z"/>
<path d="M4204 2824 c4 -14 15 -45 25 -68 10 -22 32 -77 49 -121 28 -73 33
-80 58 -80 24 0 29 6 41 48 9 30 18 45 25 41 6 -4 8 -3 5 3 -4 6 4 39 18 73
14 34 22 66 20 70 -3 5 -1 10 4 12 4 1 12 13 15 26 6 18 4 22 -14 22 -11 0
-23 -8 -26 -17 -7 -21 -17 -49 -32 -83 -6 -14 -22 -54 -35 -89 l-25 -63 -21
58 c-64 173 -74 194 -94 194 -16 0 -18 -5 -13 -26z"/>
<path d="M4539 2838 c0 -7 -1 -75 -2 -151 l-2 -137 100 0 c89 0 101 2 102 18
1 14 -8 17 -60 17 -34 0 -67 -3 -73 -7 -16 -10 -24 14 -24 68 0 49 -5 46 91
46 48 0 57 2 55 16 -2 14 -15 17 -72 17 l-69 0 0 45 0 45 65 0 c66 0 95 9 85
26 -10 15 -195 12 -196 -3z"/>
<path d="M3617 2616 c-2 -5 -1 -22 1 -38 4 -24 9 -28 38 -28 33 0 33 1 30 37
-2 34 -5 37 -34 38 -18 0 -33 -3 -35 -9z"/>
</g>
</svg>
